<svg width="2425" height="3047" viewBox="0 0 2425 3047" fill="none" xmlns="http://www.w3.org/2000/svg">
<path d="M742.403 3046.34C749.653 3047.24 756.24 3042.1 757.13 3034.88C770.853 2923.08 789.705 2811.29 822.653 2704.2L824.158 2699.22L825.776 2694.29L829.013 2684.46L832.233 2674.62L833.835 2669.7L842.542 2645.42C906.399 2471.5 1000.03 2359.29 1138.96 2240.36C1225.63 2166.32 1322.16 2102.69 1406.59 2022.73C1501.21 1935.1 1580 1816.87 1588.95 1684.49C1596.14 1591.77 1573.19 1498.59 1527.81 1418.03C1478.13 1330.26 1399.39 1257.73 1304.3 1222.11C1203.45 1183.56 1087.17 1191.33 990.062 1236.07C889.649 1281.59 803.978 1367.06 771.564 1473.55C770.674 1476.81 769.282 1482.03 768.085 1486.6C767.438 1484.99 766.807 1483.47 766.224 1482.08C762.972 1473.75 757.485 1462.19 753.456 1454.04C709.18 1366.46 633.418 1294.43 542.484 1256.87C473.284 1228.19 395.965 1219.95 322.164 1232.72C206.404 1253.05 112.15 1323.62 56.6561 1426.74C-17.47 1565.84 -15.6717 1739.55 43.4969 1883.4C56.9585 1915.18 72.6666 1945.48 90.2469 1974.48C90.2396 1974.5 90.2327 1974.51 90.2254 1974.53C90.3288 1974.67 90.4325 1974.81 90.536 1974.96C90.5652 1975.01 90.5946 1975.05 90.6238 1975.1C90.6262 1975.1 90.6284 1975.09 90.6307 1975.09C188.755 2110.9 311.463 2220.55 435.288 2324.56C449.725 2335.91 465.547 2314.5 454.161 2300.86C407.969 2246.13 361.208 2192.76 315.896 2137.47C252.722 2060.56 192.268 1979.73 141.359 1891.97C130.037 1866.36 120.437 1839.96 113.268 1812.89C68.4376 1645.02 107.957 1424.75 280.828 1348.9C323.581 1329.74 371.043 1320.72 417.91 1320.97C423.083 1321.16 425.338 1320.77 430.95 1321.16L443.992 1321.92L447.271 1322.13L450.497 1322.5L457.016 1323.2C463.977 1323.67 476.244 1325.97 482.977 1326.94L495.831 1329.66C535.058 1338.31 572.938 1354.01 607.604 1374.21C652.006 1400.05 692.043 1434.04 726.415 1472.31C739.28 1486.65 751.303 1501.89 763.295 1517.6C764.864 1523.15 772.859 1524.19 775.691 1519.04L777.066 1516.68C847.412 1395.08 978.136 1319.7 1116.45 1316.21C1128.13 1316.29 1141.05 1316.42 1152.63 1317.67C1171.6 1319.32 1190.84 1322.94 1209.16 1327.97C1221.38 1331.58 1234.15 1335.9 1245.8 1341.13C1264.2 1349 1282.01 1359.17 1298.37 1370.73C1411.36 1450.22 1476.4 1606.22 1433.44 1740.55C1418.69 1786.3 1393.35 1829.28 1363.2 1867.02C1293.93 1952.8 1207.01 2017.29 1122.66 2090.58C1032.83 2168.61 948.327 2253.64 882.173 2353.99C832.508 2429.54 795.596 2513.17 771.532 2600.14C732.354 2741.14 723.437 2890.45 730.865 3033.94C731.205 3040.21 735.979 3045.53 742.403 3046.34Z" fill="#14B8A6"/>
<path d="M2086 895.5C2007.24 1004.78 1835.5 1058.97 1703.73 1058.97C1311.76 1058.97 1188.5 919 1188.5 919C1188.5 919 1143.87 949 1418.19 1139C1692.5 1329 1703.73 1691.46 1613.65 1859.98C1523.57 2028.49 1379 2117 1257.67 2201.5C2307.67 1859.98 2783 1176.5 2094.5 0C2296 492.5 2190.5 750.5 2086 895.5Z" fill="#14B8A6"/>
<path d="M1932.68 873.107C2030.21 854.851 2088.9 731.137 2063.75 596.775C2038.6 462.413 1939.14 368.301 1841.61 386.557C1744.07 404.814 1685.39 528.527 1710.53 662.889C1735.68 797.251 1835.14 891.364 1932.68 873.107Z" fill="black"/>
<path d="M1224.28 2295.88C1237.08 2295.88 1249.41 2297.86 1261.27 2301.82C1273.13 2305.78 1283.6 2311.25 1292.68 2318.24C1301.75 2325.22 1308.96 2333.6 1314.31 2343.39C1319.89 2353.17 1322.68 2363.99 1322.68 2375.87C1322.68 2380.76 1321.52 2385.54 1319.2 2390.19C1317.1 2394.62 1314.19 2398.58 1310.47 2402.07C1306.75 2405.33 1302.45 2408.01 1297.56 2410.1C1292.91 2411.97 1288.02 2412.9 1282.9 2412.9C1282.44 2412.9 1281.97 2413.01 1281.51 2413.25C1281.28 2413.25 1280.93 2413.25 1280.46 2413.25C1280 2413.48 1279.53 2413.6 1279.07 2413.6L1280.46 2441.54C1281.39 2474.84 1286.05 2499.18 1294.42 2514.55C1303.03 2529.92 1314.19 2537.6 1327.92 2537.6C1332.8 2537.6 1337.11 2537.13 1340.83 2536.2C1344.78 2535.27 1348.39 2534.22 1351.65 2533.06C1355.14 2531.66 1358.39 2530.5 1361.42 2529.57C1364.44 2528.64 1367.47 2528.17 1370.49 2528.17C1375.84 2528.17 1380.49 2530.5 1384.45 2535.16C1388.64 2539.81 1390.73 2545.4 1390.73 2551.92C1390.73 2558.44 1388.17 2564.96 1383.05 2571.48C1378.17 2578 1371.65 2583.94 1363.51 2589.3C1355.37 2594.42 1346.18 2598.61 1335.94 2601.87C1325.71 2605.13 1315.36 2606.76 1304.89 2606.76C1286.74 2606.76 1270.81 2599.31 1257.08 2584.41C1243.36 2569.27 1233.59 2547.15 1227.77 2518.04C1226.38 2513.38 1224.51 2511.05 1222.19 2511.05C1219.4 2511.05 1216.95 2512.45 1214.86 2515.24C1191.83 2544.35 1167.29 2566.24 1141.23 2580.91C1115.18 2595.35 1089.47 2602.57 1064.12 2602.57C1052.25 2602.57 1041.55 2600.83 1032.01 2597.33C1022.48 2593.84 1014.33 2588.95 1007.59 2582.66C1001.07 2576.14 995.956 2568.34 992.234 2559.26C988.745 2549.94 987 2539.58 987 2528.17C987 2512.1 990.489 2495.22 997.468 2477.52C1004.68 2459.82 1014.33 2442.36 1026.43 2425.12C1038.53 2407.89 1052.49 2391.47 1068.3 2375.87C1084.36 2360.27 1101.1 2346.53 1118.55 2334.65C1136.23 2322.78 1154.14 2313.35 1172.29 2306.36C1190.43 2299.37 1207.77 2295.88 1224.28 2295.88ZM1212.77 2416.74C1216.95 2408.82 1220.79 2403.12 1224.28 2399.62C1227.77 2395.9 1232.77 2393.45 1239.29 2392.29C1244.4 2391.59 1246.96 2389.96 1246.96 2387.4C1246.96 2385.54 1246.27 2383.56 1244.87 2381.46C1240.45 2375.41 1235.8 2370.17 1230.91 2365.74C1226.03 2361.08 1219.51 2358.76 1211.37 2358.76C1202.53 2358.76 1192.64 2361.32 1181.71 2366.44C1170.78 2371.56 1159.61 2378.43 1148.21 2387.05C1137.05 2395.43 1126 2405.1 1115.06 2416.04C1104.36 2426.75 1094.82 2437.82 1086.45 2449.23C1078.07 2460.64 1071.33 2471.93 1066.21 2483.11C1061.09 2494.29 1058.53 2504.3 1058.53 2513.15C1058.53 2521.07 1060.63 2527.24 1064.81 2531.66C1069.23 2536.09 1075.17 2538.3 1082.61 2538.3C1101.69 2538.3 1122.51 2528.17 1145.07 2507.91C1167.64 2487.65 1190.2 2457.26 1212.77 2416.74Z" fill="black"/>
<path d="M1489.13 2297.98C1504.72 2297.98 1520.77 2300.07 1537.29 2304.26C1553.8 2308.22 1568.92 2313.46 1582.65 2319.98C1596.37 2326.27 1607.66 2333.37 1616.5 2341.29C1625.34 2349.21 1629.76 2356.89 1629.76 2364.34C1629.76 2368.07 1628.13 2372.26 1624.87 2376.92C1621.61 2381.34 1617.66 2385.65 1613.01 2389.84C1608.35 2393.8 1603.24 2397.18 1597.65 2399.97C1592.3 2402.53 1587.53 2403.82 1583.35 2403.82C1577.76 2403.82 1571.48 2401.49 1564.5 2396.83C1557.76 2392.17 1550.2 2387.05 1541.82 2381.46C1533.68 2375.64 1524.72 2370.4 1514.95 2365.74C1505.18 2361.08 1494.6 2358.76 1483.2 2358.76C1475.75 2358.76 1469.59 2360.62 1464.7 2364.34C1460.05 2367.84 1457.73 2372.84 1457.73 2379.36C1457.73 2385.19 1460.52 2391.12 1466.1 2397.18C1471.68 2403 1479.01 2409.06 1488.08 2415.34C1497.39 2421.63 1507.86 2428.27 1519.49 2435.25C1531.12 2442.24 1542.98 2449.69 1555.08 2457.61C1567.41 2465.53 1579.39 2474.14 1591.02 2483.46C1602.65 2492.77 1613.01 2502.9 1622.08 2513.85C1631.38 2524.79 1638.83 2536.79 1644.41 2549.83C1649.99 2562.63 1652.79 2576.61 1652.79 2591.74C1652.79 2604.78 1650.46 2616.66 1645.81 2627.37C1641.15 2638.08 1634.52 2647.28 1625.92 2654.97C1617.31 2662.65 1607.07 2668.59 1595.21 2672.78C1583.35 2676.97 1570.32 2679.07 1556.13 2679.07C1538.22 2679.07 1521.7 2676.28 1506.58 2670.69C1491.46 2665.33 1478.43 2657.88 1467.5 2648.33C1456.56 2638.78 1447.96 2627.37 1441.67 2614.1C1435.63 2600.83 1432.6 2586.27 1432.6 2570.44C1432.6 2549.94 1436.21 2535.04 1443.42 2525.72C1450.86 2516.41 1462.49 2511.75 1478.31 2511.75C1488.08 2511.75 1495.88 2513.61 1501.69 2517.34C1507.51 2521.07 1510.42 2525.61 1510.42 2530.96C1510.42 2533.76 1509.95 2536.67 1509.02 2539.7C1508.09 2542.49 1507.04 2545.52 1505.88 2548.78C1504.95 2551.81 1504.02 2555.07 1503.09 2558.56C1502.39 2562.05 1502.04 2565.55 1502.04 2569.04C1502.04 2575.09 1503.44 2580.91 1506.23 2586.5C1509.02 2592.09 1512.74 2596.98 1517.4 2601.17C1522.28 2605.6 1527.86 2609.09 1534.14 2611.65C1540.43 2614.22 1547.06 2615.5 1554.03 2615.5C1572.65 2615.5 1581.95 2607.81 1581.95 2592.44C1581.95 2580.33 1577.18 2568.92 1567.64 2558.21C1558.11 2547.26 1546.13 2536.67 1531.7 2526.42C1517.28 2515.94 1501.69 2505.46 1484.94 2494.99C1468.43 2484.51 1452.96 2473.56 1438.53 2462.15C1424.11 2450.74 1412.13 2438.63 1402.59 2425.82C1393.05 2412.78 1388.29 2398.69 1388.29 2383.56C1388.29 2370.98 1390.85 2359.45 1395.96 2348.97C1401.31 2338.5 1408.52 2329.53 1417.6 2322.08C1426.67 2314.39 1437.25 2308.45 1449.35 2304.26C1461.68 2300.07 1474.94 2297.98 1489.13 2297.98Z" fill="black"/>
<path d="M1717.69 2244.88C1710.94 2244.88 1704.55 2243.95 1698.5 2242.09C1692.68 2239.99 1687.56 2237.2 1683.14 2233.7C1678.96 2229.98 1675.58 2225.67 1673.02 2220.78C1670.47 2215.89 1669.19 2210.53 1669.19 2204.71C1669.19 2194.93 1673.02 2187.01 1680.7 2180.96C1688.61 2174.9 1699.08 2171.88 1712.11 2171.88C1718.15 2171.88 1723.97 2173.04 1729.55 2175.37C1735.14 2177.46 1740.02 2180.38 1744.21 2184.1C1748.63 2187.83 1752.12 2192.25 1754.68 2197.37C1757.24 2202.27 1758.52 2207.39 1758.52 2212.74C1758.52 2222.76 1754.79 2230.68 1747.35 2236.5C1740.14 2242.09 1730.25 2244.88 1717.69 2244.88ZM1669.88 2351.42C1669.88 2343.27 1673.37 2336.63 1680.35 2331.51C1687.56 2326.15 1696.99 2323.47 1708.62 2323.47C1729.55 2323.47 1740.72 2330.69 1742.12 2345.13C1743.05 2355.15 1743.98 2366.44 1744.91 2379.01C1746.07 2391.59 1747.12 2404.98 1748.05 2419.19C1749.21 2433.16 1750.14 2447.71 1750.84 2462.85C1751.77 2477.75 1752.58 2492.54 1753.28 2507.21C1753.98 2521.65 1754.56 2535.62 1755.03 2549.13C1755.49 2562.63 1755.72 2574.98 1755.72 2586.15C1755.72 2597.8 1751.54 2606.53 1743.16 2612.35C1735.02 2618.17 1723.04 2621.09 1707.22 2621.09C1700.01 2621.09 1694.31 2619.34 1690.12 2615.85C1686.17 2612.59 1684.19 2607.7 1684.19 2601.17C1684.19 2569.04 1683.38 2539 1681.75 2511.05C1680.35 2482.88 1678.72 2457.84 1676.86 2435.95C1675.23 2414.06 1673.61 2395.9 1671.98 2381.46C1670.58 2366.79 1669.88 2356.78 1669.88 2351.42Z" fill="black"/>
<path d="M1790.62 2408.71C1785.27 2408.24 1780.96 2404.75 1777.71 2398.23C1774.45 2391.71 1772.82 2384.49 1772.82 2376.57C1772.82 2372.84 1773.17 2369.23 1773.87 2365.74C1774.33 2362.02 1775.27 2358.76 1776.66 2355.96C1778.06 2353.17 1779.8 2350.95 1781.9 2349.32C1783.99 2347.46 1786.43 2346.53 1789.22 2346.53C1797.83 2346.53 1807.72 2346.3 1818.88 2345.83C1830.05 2345.13 1842.03 2344.43 1854.82 2343.73C1861.34 2343.04 1864.94 2339.19 1865.64 2332.21C1867.74 2298.44 1870.64 2269.33 1874.37 2244.88C1878.09 2220.43 1882.62 2199.82 1887.97 2183.05C1893.32 2166.05 1899.37 2152.31 1906.12 2141.83C1913.1 2131.36 1920.78 2123.32 1929.15 2117.73C1931.71 2115.87 1934.73 2114.01 1938.22 2112.14C1941.71 2110.05 1944.97 2109 1947.99 2109C1953.81 2109 1959.86 2110.51 1966.14 2113.54C1972.65 2116.34 1978.58 2120.06 1983.93 2124.72C1989.52 2129.14 1994.05 2134.27 1997.54 2140.09C2001.03 2145.68 2002.78 2151.27 2002.78 2156.86C2002.78 2158.95 2002.31 2160.7 2001.38 2162.09C2000.45 2163.26 1999.29 2164.42 1997.89 2165.59C1988.82 2172.34 1980.79 2179.91 1973.81 2188.29C1966.84 2196.68 1960.9 2206.92 1956.02 2219.03C1951.13 2231.14 1947.06 2245.7 1943.81 2262.7C1940.55 2279.7 1938.11 2300.19 1936.48 2324.17C1936.48 2327.9 1937.06 2330.69 1938.22 2332.56C1939.62 2334.19 1942.06 2335 1945.55 2335C1954.62 2335 1963.7 2334.3 1972.77 2332.91C1982.07 2331.51 1990.91 2330.11 1999.29 2328.71C2007.66 2327.08 2015.57 2325.57 2023.02 2324.17C2030.46 2322.78 2037.09 2322.08 2042.91 2322.08C2047.09 2322.08 2050.12 2324.64 2051.98 2329.76C2054.07 2334.65 2055.12 2340.71 2055.12 2347.93C2055.12 2352.12 2054.77 2356.43 2054.07 2360.85C2053.37 2365.28 2052.21 2369.23 2050.58 2372.73C2049.19 2376.22 2047.33 2379.25 2045 2381.81C2042.67 2384.14 2039.77 2385.54 2036.28 2386L1943.46 2395.78C1938.57 2396.48 1935.55 2398.46 1934.38 2401.72C1933.45 2404.98 1932.99 2409.52 1932.99 2415.34C1932.99 2466.81 1934.27 2511.05 1936.83 2548.08C1939.39 2585.11 1942.18 2616.19 1945.2 2641.35C1948.46 2666.73 1951.37 2686.64 1953.92 2701.08C1956.48 2715.75 1957.76 2726.34 1957.76 2732.86C1957.76 2737.75 1955.79 2742.18 1951.83 2746.14C1948.11 2750.1 1943.22 2753.47 1937.18 2756.27C1931.36 2759.06 1924.96 2761.16 1917.98 2762.55C1911 2764.18 1904.49 2765 1898.44 2765C1892.63 2765 1887.39 2763.95 1882.74 2761.86C1878.32 2759.99 1875.76 2756.73 1875.06 2752.08C1872.74 2735.77 1870.76 2717.84 1869.13 2698.28C1867.5 2678.95 1866.11 2657.41 1864.94 2633.66C1864.01 2610.14 1863.32 2584.41 1862.85 2556.46C1862.39 2528.29 1862.15 2497.43 1862.15 2463.9C1862.15 2455.28 1862.15 2446.9 1862.15 2438.75C1862.15 2430.6 1862.39 2422.45 1862.85 2414.3C1862.85 2407.31 1859.01 2403.82 1851.34 2403.82L1790.62 2408.71Z" fill="black"/>
<path d="M2258.55 2295.88C2271.35 2295.88 2283.68 2297.86 2295.54 2301.82C2307.41 2305.78 2317.87 2311.25 2326.95 2318.24C2336.02 2325.22 2343.23 2333.6 2348.58 2343.39C2354.16 2353.17 2356.96 2363.99 2356.96 2375.87C2356.96 2380.76 2355.79 2385.54 2353.47 2390.19C2351.37 2394.62 2348.46 2398.58 2344.74 2402.07C2341.02 2405.33 2336.72 2408.01 2331.83 2410.1C2327.18 2411.97 2322.29 2412.9 2317.18 2412.9C2316.71 2412.9 2316.25 2413.01 2315.78 2413.25C2315.55 2413.25 2315.2 2413.25 2314.73 2413.25C2314.27 2413.48 2313.8 2413.6 2313.34 2413.6L2314.73 2441.54C2315.66 2474.84 2320.32 2499.18 2328.69 2514.55C2337.3 2529.92 2348.46 2537.6 2362.19 2537.6C2367.08 2537.6 2371.38 2537.13 2375.1 2536.2C2379.06 2535.27 2382.66 2534.22 2385.92 2533.06C2389.41 2531.66 2392.66 2530.5 2395.69 2529.57C2398.71 2528.64 2401.74 2528.17 2404.76 2528.17C2410.11 2528.17 2414.76 2530.5 2418.72 2535.16C2422.91 2539.81 2425 2545.4 2425 2551.92C2425 2558.44 2422.44 2564.96 2417.32 2571.48C2412.44 2578 2405.92 2583.94 2397.78 2589.3C2389.64 2594.42 2380.45 2598.61 2370.22 2601.87C2359.98 2605.13 2349.63 2606.76 2339.16 2606.76C2321.01 2606.76 2305.08 2599.31 2291.35 2584.41C2277.63 2569.27 2267.86 2547.15 2262.04 2518.04C2260.65 2513.38 2258.79 2511.05 2256.46 2511.05C2253.67 2511.05 2251.23 2512.45 2249.13 2515.24C2226.1 2544.35 2201.56 2566.24 2175.5 2580.91C2149.45 2595.35 2123.74 2602.57 2098.39 2602.57C2086.52 2602.57 2075.82 2600.83 2066.29 2597.33C2056.75 2593.84 2048.61 2588.95 2041.86 2582.66C2035.35 2576.14 2030.23 2568.34 2026.51 2559.26C2023.02 2549.94 2021.27 2539.58 2021.27 2528.17C2021.27 2512.1 2024.76 2495.22 2031.74 2477.52C2038.95 2459.82 2048.61 2442.36 2060.7 2425.12C2072.8 2407.89 2086.76 2391.47 2102.58 2375.87C2118.63 2360.27 2135.38 2346.53 2152.82 2334.65C2170.5 2322.78 2188.42 2313.35 2206.56 2306.36C2224.71 2299.37 2242.04 2295.88 2258.55 2295.88ZM2247.04 2416.74C2251.23 2408.82 2255.06 2403.12 2258.55 2399.62C2262.04 2395.9 2267.04 2393.45 2273.56 2392.29C2278.68 2391.59 2281.23 2389.96 2281.23 2387.4C2281.23 2385.54 2280.54 2383.56 2279.14 2381.46C2274.72 2375.41 2270.07 2370.17 2265.18 2365.74C2260.3 2361.08 2253.78 2358.76 2245.64 2358.76C2236.8 2358.76 2226.92 2361.32 2215.98 2366.44C2205.05 2371.56 2193.88 2378.43 2182.48 2387.05C2171.32 2395.43 2160.27 2405.1 2149.33 2416.04C2138.63 2426.75 2129.1 2437.82 2120.72 2449.23C2112.35 2460.64 2105.6 2471.93 2100.48 2483.11C2095.36 2494.29 2092.8 2504.3 2092.8 2513.15C2092.8 2521.07 2094.9 2527.24 2099.09 2531.66C2103.51 2536.09 2109.44 2538.3 2116.88 2538.3C2135.96 2538.3 2156.78 2528.17 2179.34 2507.91C2201.91 2487.65 2224.47 2457.26 2247.04 2416.74Z" fill="black"/>
</svg>
